<?xml version="1.0" encoding="UTF-8"?>
<svg version="1.1" xmlns="http://www.w3.org/2000/svg" width="1600" height="900">
<path d="M0 0 C528 0 1056 0 1600 0 C1600 297 1600 594 1600 900 C1072 900 544 900 0 900 C0 603 0 306 0 0 Z " fill="#000000" transform="translate(0,0)"/>
<path d="M0 0 C32.67 0 65.34 0 99 0 C99 4.29 99 8.58 99 13 C99.99 13 100.98 13 102 13 C102 12.34 102 11.68 102 11 C114.50379987 6.46963773 126.8964577 3.26373012 140 1 C140.91023926 0.8242041 141.82047852 0.6484082 142.75830078 0.46728516 C146.57767643 -0.08327103 150.34459554 -0.19878172 154.1953125 -0.23828125 C154.97681168 -0.24789383 155.75831085 -0.25750641 156.56349182 -0.26741028 C159.08403912 -0.29207054 161.60434617 -0.30466455 164.125 -0.3125 C165.40922348 -0.31742462 165.40922348 -0.31742462 166.71939087 -0.32244873 C179.63634107 -0.33851855 191.47810728 0.68990951 204 4 C206.05896882 4.35449227 208.12118801 4.6911762 210.1875 5 C215.19980916 5.88128513 219.4536219 7.77301398 224 10 C225.66392045 10.67349161 227.33032028 11.3409159 229 12 C247.22423494 19.35978719 264.75329898 31.50709269 279 45 C282.44247003 43.50904359 284.73618687 41.52037444 287.4375 38.9375 C305.90731018 22 305.90731018 22 314 22 C314 21.34 314 20.68 314 20 C335.83115122 8.4069059 358.97966885 -0.04265567 383.98828125 -0.203125 C384.72474884 -0.21018463 385.46121643 -0.21724426 386.22000122 -0.22451782 C417.1308236 -0.45355317 417.1308236 -0.45355317 431 3 C432.27568848 3.31396729 432.27568848 3.31396729 433.57714844 3.63427734 C444.81321382 6.47648293 455.54054686 9.98788621 466 15 C467.61068359 15.76763672 467.61068359 15.76763672 469.25390625 16.55078125 C472 18 472 18 474 20 C476.06874034 20.6425235 476.06874034 20.6425235 478 21 C478 21.66 478 22.32 478 23 C478.69867187 23.24621094 479.39734375 23.49242187 480.1171875 23.74609375 C506.16711427 35.07675295 530.10641385 63.67330005 541.98046875 88.88671875 C542.72699349 90.43411294 543.52972914 91.95472673 544.36328125 93.45703125 C558.96539423 120.43509529 560.33069683 152.08440033 560.22705078 182.0480957 C560.22648503 184.37628677 560.22680642 186.7044782 560.22793579 189.03266907 C560.22850389 195.28332442 560.21683853 201.53390123 560.20278788 207.78453851 C560.19018899 214.3427796 560.18910286 220.90102297 560.18673706 227.45927429 C560.18158257 238.44429873 560.16880227 249.42929602 560.15087891 260.41430664 C560.13245605 271.71736512 560.11833112 283.02041582 560.10986328 294.32348633 C560.10907511 295.37260697 560.10907511 295.37260697 560.10827102 296.44292197 C560.10566051 299.95247942 560.1031332 303.46203692 560.10064721 306.97159445 C560.07999123 335.98108459 560.04316341 364.99053357 560 394 C527.33 394 494.66 394 461 394 C460.9906543 386.80823975 460.98130859 379.61647949 460.97167969 372.20678711 C460.93891817 349.15188685 460.88659521 326.0970653 460.82207905 303.04223507 C460.81206252 299.45646116 460.80221823 295.87068679 460.79248047 292.28491211 C460.7905391 291.57109922 460.78859772 290.85728633 460.78659752 290.12184275 C460.75564201 278.58923112 460.73861494 267.05663934 460.72680578 255.52399402 C460.71436069 243.6756852 460.68678395 231.82748001 460.64538693 219.97923666 C460.62258462 213.33046214 460.60708741 206.68179876 460.60811615 200.03297234 C460.60886464 193.76616534 460.59083747 187.49968428 460.55883217 181.23296165 C460.55036115 178.94138324 460.54856405 176.64976815 460.55419731 174.358181 C460.58080157 161.86499228 459.99730613 150.895822 456 139 C455.65159015 137.67052662 455.31067683 136.33879378 455 135 C454.34 135 453.68 135 453 135 C452.60425781 133.97261719 452.20851563 132.94523438 451.80078125 131.88671875 C450.140607 128.02270452 447.90353518 125.03753101 445.1875 121.8125 C444.35605469 120.80832031 443.52460937 119.80414063 442.66796875 118.76953125 C440.6123212 116.63563064 439.10063795 115.30209028 436.67578125 113.76171875 C435.35126953 112.88966797 435.35126953 112.88966797 434 112 C434 111.34 434 110.68 434 110 C433.44054687 109.88269531 432.88109375 109.76539063 432.3046875 109.64453125 C429.72632313 108.92346325 427.52820587 107.8671892 425.125 106.6875 C408.44345442 99.13690569 391.15357016 97.31079901 373.3984375 102.34375 C371 103 371 103 368 103 C368 103.66 368 104.32 368 105 C367.030625 105.350625 366.06125 105.70125 365.0625 106.0625 C358.05756645 109.06055472 352.12590398 114.45848218 347 120 C346.54238281 120.45246094 346.08476563 120.90492188 345.61328125 121.37109375 C331.77545596 135.93531407 329.89970464 155.8253237 329.79467773 174.8972168 C329.78477814 176.03023727 329.77487854 177.16325775 329.76467896 178.33061218 C329.73335447 182.03679388 329.70842265 185.74298834 329.68359375 189.44921875 C329.66299907 192.034249 329.64200198 194.61927607 329.62062073 197.20429993 C329.57126246 203.28837577 329.52593108 209.37246913 329.48259836 215.45659047 C329.42810864 223.07200478 329.36737455 230.68736775 329.30664062 238.30273438 C329.19847885 251.86844991 329.09967046 265.43421353 329 279 C296.33 279 263.66 279 230 279 C229.95101562 270.36714844 229.90203125 261.73429687 229.8515625 252.83984375 C229.811639 246.6490344 229.77051519 240.45824205 229.72766876 234.26745319 C229.67243231 226.2635299 229.6199557 218.25962103 229.578125 210.25561523 C229.54497738 203.91480052 229.5050244 197.57406963 229.45720994 191.23334795 C229.43216864 187.88217048 229.41134037 184.53110168 229.39665604 181.17985344 C230.53458986 157.09074776 230.53458986 157.09074776 223 135 C222.56558594 133.90558594 222.13117188 132.81117188 221.68359375 131.68359375 C217.42511272 121.5235222 206.9400226 113.82798942 198 108 C196.9275 107.2575 195.855 106.515 194.75 105.75 C179.24602603 97.61676775 159.68955962 97.71410213 143.25 102.5625 C133.50045651 105.6873779 125.92234904 110.4483465 119 118 C117.3125 119.8125 117.3125 119.8125 116 121 C115.34 121 114.68 121 114 121 C113.62875 122.0828125 113.62875 122.0828125 113.25 123.1875 C112 126 112 126 110.1171875 128.19921875 C107.6481189 131.46549585 106.25711544 134.81504158 104.875 138.625 C104.62363281 139.27339844 104.37226562 139.92179688 104.11328125 140.58984375 C100.77506361 149.59079706 99.70067841 158.73234239 99.7215271 168.28227234 C99.7157347 169.25538937 99.7099423 170.2285064 99.70397437 171.23111182 C99.68710834 174.45838975 99.68410949 177.68552352 99.68115234 180.9128418 C99.67184491 183.23956141 99.66167504 185.56627771 99.65071106 187.89299011 C99.62348896 194.18551945 99.60828475 200.4780265 99.59528303 206.77059913 C99.57961836 213.35562165 99.55283879 219.94059889 99.5272522 226.52558899 C99.48550226 237.57034815 99.45121649 248.61511339 99.421875 259.65991211 C99.39164697 271.03134953 99.3572773 282.40276213 99.31738281 293.77416992 C99.31492126 294.47621092 99.31245972 295.17825192 99.30992357 295.90156689 C99.29754815 299.42383096 99.28509177 302.94609475 99.27259517 306.4683584 C99.16918227 335.64553947 99.08154422 364.82274864 99 394 C66.33 394 33.66 394 0 394 C0 263.98 0 133.96 0 0 Z " fill="#FDFDFD" transform="translate(440,181)"/>
<path d="M0 0 C1.18223263 -0.00170885 2.36446525 -0.0034177 3.58252311 -0.00517833 C6.8277236 -0.00788147 10.07276025 -0.00171363 13.31794143 0.00837779 C16.8310554 0.01707838 20.34416282 0.01408749 23.85728455 0.01257324 C29.93197655 0.01152854 36.00662533 0.01776156 42.08130646 0.02904892 C50.86408569 0.0453575 59.64684419 0.05051739 68.42963693 0.0530249 C82.68184253 0.05739363 96.93402513 0.07068034 111.18621826 0.08963013 C125.02443324 0.10801027 138.86264196 0.12215631 152.7008667 0.13064575 C153.98203927 0.13143392 153.98203927 0.13143392 155.28909412 0.13223802 C159.57427492 0.13484824 163.85945576 0.13737562 168.14463663 0.13986182 C203.65021682 0.1605687 239.15575444 0.19742459 274.66131592 0.24050903 C274.66131592 32.58050903 274.66131592 64.92050903 274.66131592 98.24050903 C266.32776855 98.2393811 257.99422119 98.23825317 249.40814209 98.23709106 C222.72489075 98.23769928 196.04175033 98.26776356 169.35854567 98.31629933 C165.2118295 98.32381511 161.06511291 98.33107064 156.918396 98.33816528 C156.09288112 98.33958204 155.26736624 98.34099879 154.41683576 98.34245847 C141.06116877 98.36475933 127.70557908 98.36599149 114.34989866 98.35939766 C100.6393347 98.35309911 86.92893297 98.36953422 73.21841794 98.40694511 C64.7624793 98.42930555 56.30691065 98.43406601 47.85095993 98.41610567 C42.04745113 98.4054801 36.24424543 98.41699471 30.4407989 98.44567056 C27.09531055 98.4615551 23.75113939 98.4646267 20.40556526 98.44790077 C16.76971487 98.43126344 13.13583586 98.45165886 9.50010681 98.48101807 C8.45435539 98.46743197 7.40860397 98.45384587 6.33116311 98.43984807 C-1.97175766 98.56967294 -8.73259607 101.23415803 -15.04634506 106.72582352 C-19.7821485 112.27642032 -20.6746839 119.86871114 -20.63946533 126.88894653 C-20.2132577 130.22111531 -18.88836779 132.73324016 -17.21368408 135.61160278 C-16.33868408 137.24050903 -16.33868408 137.24050903 -16.33868408 139.24050903 C-15.44910775 139.65554247 -15.44910775 139.65554247 -14.54156017 140.07896042 C-12.33868408 141.24050903 -12.33868408 141.24050903 -10.76279926 142.50694656 C-4.11379198 147.75542449 3.68764102 146.94044548 11.72503662 146.88406372 C13.35367861 146.89088656 14.98231262 146.89991254 16.6109314 146.91096497 C21.01823998 146.93479468 25.42504123 146.92826753 29.83237863 146.91647625 C34.45707698 146.90960612 39.08163337 146.93176288 43.70628357 146.95101929 C52.46902676 146.98329661 61.23160534 146.99113596 69.99440116 146.98944497 C82.83218361 146.9879862 95.66988358 147.02161 108.50760937 147.0571785 C110.40814399 147.06240481 112.30867862 147.06762716 114.20921326 147.07284546 C115.13782942 147.07545041 116.06644559 147.07805537 117.02320164 147.08073926 C122.5179235 147.09531101 128.01258879 147.10232151 133.50732958 147.10249376 C136.93637021 147.10314444 140.36540061 147.1075093 143.79443741 147.11246681 C145.37496705 147.11381872 146.95549929 147.11347005 148.53602791 147.11121941 C171.26062407 147.08038214 171.26062407 147.08038214 181.08709717 150.42019653 C181.72318405 150.63362701 182.35927094 150.8470575 183.01463318 151.06695557 C184.3380002 151.51349438 185.65946017 151.9657252 186.97894287 152.4236145 C188.98411469 153.11908102 190.99473767 153.79639092 193.00701904 154.47097778 C201.06022576 157.20344769 207.97848372 159.89424328 214.66131592 165.24050903 C215.65131592 165.73550903 216.64131592 166.23050903 217.66131592 166.74050903 C220.70849159 168.26409687 223.02546576 170.10333323 225.66131592 172.24050903 C226.65131592 172.57050903 227.64131592 172.90050903 228.66131592 173.24050903 C229.21819092 173.94175903 229.77506592 174.64300903 230.34881592 175.36550903 C232.26904195 177.75281707 233.96730792 179.42444802 236.28631592 181.36550903 C244.99139234 188.85479266 251.90385676 197.32965895 257.66131592 207.24050903 C258.6261792 208.8917981 258.6261792 208.8917981 259.61053467 210.57644653 C275.22321009 238.11071681 278.99278922 270.47951893 271.66131592 301.24050903 C270.52395973 305.33124691 269.19158059 309.28152884 267.66131592 313.24050903 C267.34162842 314.11062622 267.02194092 314.98074341 266.69256592 315.87722778 C264.50218103 321.64465252 261.82506114 326.94987626 258.66131592 332.24050903 C258.17018311 333.08226685 257.67905029 333.92402466 257.17303467 334.79129028 C239.8085226 363.42823023 211.82795292 382.95578763 179.56365967 391.36941528 C167.53403972 394.079025 155.66139883 394.38406868 143.37957764 394.35403442 C141.75250755 394.3537519 140.12543733 394.35391157 138.49836731 394.35447693 C134.10859229 394.35476234 129.71884492 394.34890712 125.32907629 394.34190297 C120.73133836 394.33562669 116.13359971 394.33506226 111.53585815 394.33387756 C102.84156514 394.33077681 94.14728478 394.32258042 85.45299733 394.31252807 C73.69579246 394.29923116 61.93858409 394.29385688 50.1813736 394.28802586 C31.67467823 394.27863963 13.16800958 394.25871234 -5.33868408 394.24050903 C-5.33868408 361.57050903 -5.33868408 328.90050903 -5.33868408 295.24050903 C6.32346436 295.22632935 17.98561279 295.21214966 30.00115967 295.19754028 C37.38855162 295.17748388 44.77590455 295.15617133 52.16326904 295.12918091 C63.88928161 295.08657263 75.61514987 295.04909872 87.34124756 295.04495239 C95.88166319 295.0419089 104.42182871 295.02136666 112.96214777 294.97998446 C117.48247007 294.9586877 122.00243711 294.94603671 126.52280998 294.95435524 C130.7821272 294.96191651 135.04072582 294.94598897 139.2999115 294.91244888 C140.85867763 294.90424051 142.41751555 294.90443624 143.97627449 294.91391182 C154.4925601 294.97148376 161.40946426 293.69316587 169.53631592 286.80300903 C174.46940721 280.85428129 175.20386683 276.11572021 175.01287842 268.50222778 C174.347715 262.33098942 172.15002217 258.03459093 168.22381592 253.30300903 C165.73843056 251.30257692 163.68966711 250.19227655 160.66131592 249.24050903 C160.66131592 248.58050903 160.66131592 247.92050903 160.66131592 247.24050903 C159.81962325 247.23719889 158.97793058 247.23388874 158.11073208 247.23047829 C137.57621743 247.14905494 117.041775 247.0569001 96.50736141 246.95298195 C86.57684284 246.90298221 76.646332 246.85653844 66.71575928 246.81863403 C58.05450035 246.78556531 49.39330377 246.74565333 40.7321139 246.69771898 C36.15134234 246.67260103 31.57061136 246.6507774 26.98978996 246.63716507 C22.66664414 246.62420989 18.34363853 246.60201484 14.02057076 246.57312584 C12.4449682 246.56415401 10.86934314 246.55838459 9.29371643 246.55629539 C-4.12918051 246.53533431 -17.04394284 245.2476479 -30.15118408 242.17800903 C-30.92526611 242.00463013 -31.69934814 241.83125122 -32.49688721 241.65261841 C-38.04283737 240.38843239 -38.04283737 240.38843239 -40.33868408 239.24050903 C-40.33868408 238.58050903 -40.33868408 237.92050903 -40.33868408 237.24050903 C-41.02575439 237.13093872 -41.71282471 237.02136841 -42.42071533 236.90847778 C-43.32177002 236.7499231 -44.22282471 236.59136841 -45.15118408 236.42800903 C-46.04450439 236.27718872 -46.93782471 236.12636841 -47.85821533 235.97097778 C-50.5790156 235.16973424 -51.47306901 234.29856577 -53.33868408 232.24050903 C-54.95850944 231.5655818 -56.57883735 230.8918297 -58.20196533 230.22488403 C-74.69752811 222.62546571 -92.81066286 205.12319369 -101.21368408 189.05300903 C-103.18758801 185.32507908 -105.26373998 181.73728833 -107.52618408 178.17800903 C-109.97889559 174.15402922 -111.45775767 170.32284785 -112.60040283 165.76004028 C-113.32466369 163.06751655 -113.32466369 163.06751655 -114.81915283 159.99050903 C-116.61354652 155.91194089 -117.29459331 151.81131392 -117.96368408 147.42800903 C-118.63329988 142.18180067 -118.63329988 142.18180067 -120.33868408 137.24050903 C-122.70759262 103.01336995 -114.34748354 70.54576922 -91.87774658 44.06082153 C-81.63282953 32.6810829 -70.65644368 21.33881405 -56.33868408 15.24050903 C-55.67868408 15.24050903 -55.01868408 15.24050903 -54.33868408 15.24050903 C-54.33868408 14.58050903 -54.33868408 13.92050903 -54.33868408 13.24050903 C-47.30460103 9.68065135 -40.3266971 6.72494057 -32.77618408 4.49050903 C-32.11755371 4.29239624 -31.45892334 4.09428345 -30.78033447 3.89016724 C-20.6085908 0.99508493 -10.54825211 -0.05680692 0 0 Z " fill="#FDFDFD" transform="translate(138.33868408203125,180.75949096679688)"/>
<path d="M0 0 C32.67 0 65.34 0 99 0 C99.02505615 7.22841797 99.0501123 14.45683594 99.07592773 21.90429688 C99.15681183 45.0412882 99.24246619 68.17825955 99.33111694 91.31522223 C99.34488626 94.91001781 99.3586134 98.50481354 99.37231445 102.09960938 C99.37504276 102.81525844 99.37777106 103.5309075 99.38058204 104.2682429 C99.4246384 115.850845 99.46527849 127.43345669 99.50465261 139.01607555 C99.54514029 150.90385929 99.58930723 162.79162527 99.63687855 174.6793828 C99.66348833 181.35529453 99.68828622 188.03120537 99.70907402 194.70713806 C99.72869473 200.99104411 99.75285469 207.27491637 99.78049088 213.55879211 C99.78983256 215.86460759 99.79751811 218.17043047 99.80341911 220.47625732 C99.8117294 223.62642035 99.82601966 226.77650245 99.84178162 229.92663574 C99.84275972 230.8371606 99.84373783 231.74768546 99.84474558 232.68580198 C99.77970451 242.67588007 99.77970451 242.67588007 102.70703125 252.0703125 C103.04669922 252.73933594 103.38636719 253.40835938 103.73632812 254.09765625 C104.09146484 254.76667969 104.44660156 255.43570313 104.8125 256.125 C105.32780273 257.14013672 105.32780273 257.14013672 105.85351562 258.17578125 C112.08308427 270.26091066 121.57336668 283.19627077 134.5625 288.4375 C135.366875 288.623125 136.17125 288.80875 137 289 C137 289.66 137 290.32 137 291 C149.15447868 293.78955248 160.49661174 295.87495493 173 295 C173.87398437 294.94070313 174.74796875 294.88140625 175.6484375 294.8203125 C191.9495962 292.59988889 207.24480357 280.55820184 217 268 C225.05800139 255.70286863 229.14244317 242.87195969 229.15821838 228.28103638 C229.16315636 227.30810792 229.16809434 226.33517946 229.17318195 225.33276832 C229.18852688 222.07617666 229.19690946 218.81960467 229.20532227 215.56298828 C229.21490315 213.22715584 229.22491335 210.89132512 229.23532104 208.55549622 C229.26235338 202.21515568 229.28337203 195.87480771 229.30332303 189.53444147 C229.32297713 183.57937921 229.34712118 177.62433658 229.37124526 171.669291 C229.41887323 159.87621973 229.46215036 148.08313669 229.50268555 136.29003906 C229.5420649 124.83592818 229.58349696 113.38182775 229.62768555 101.92773438 C229.63177196 100.86822196 229.63177196 100.86822196 229.63594092 99.78730525 C229.6496208 96.24370404 229.66334099 92.70010299 229.67708123 89.15650201 C229.79097065 59.77102276 229.89699402 30.38551972 230 1 C262.67 1 295.34 1 329 1 C329.02187378 11.71247192 329.02187378 11.71247192 329.04418945 22.64135742 C329.09300991 45.52612216 329.15643643 68.41083092 329.22898628 91.29553105 C329.24025362 94.85384001 329.25139221 98.41214937 329.26245117 101.97045898 C329.2657567 103.0329934 329.2657567 103.0329934 329.269129 104.11699317 C329.30444279 115.56688433 329.32934026 127.01677543 329.35034702 138.46670076 C329.37215635 150.22684596 329.40525519 161.98692088 329.44870156 173.74700624 C329.47276651 180.3476353 329.49135168 186.94820607 329.49761391 193.54887962 C329.50367903 199.76802926 329.52373083 205.98698052 329.55427551 212.20605659 C329.5630328 214.48235062 329.56678313 216.75867059 329.56500816 219.03498077 C329.5573129 233.46395839 329.62337493 246.69958033 336.6875 259.6875 C340 265.85300207 340 265.85300207 340 268 C340.66 268 341.32 268 342 268 C343.28535171 269.49514474 344.50373806 271.04820119 345.6875 272.625 C349.10530619 277.01046094 352.5918101 280.63088343 357 284 C357.598125 284.50273437 358.19625 285.00546875 358.8125 285.5234375 C361.51253968 287.34596428 364.14753517 288.20954913 367.25 289.1875 C368.32765625 289.53167969 369.4053125 289.87585938 370.515625 290.23046875 C371.33546875 290.48441406 372.1553125 290.73835938 373 291 C373 291.66 373 292.32 373 293 C374.2375 293.144375 375.475 293.28875 376.75 293.4375 C378.8179186 293.67875717 380.76422622 293.93235421 382.76690674 294.50694275 C385.50537713 295.11158507 388.06507308 295.16336648 390.87011719 295.20532227 C392.66618408 295.23559509 392.66618408 295.23559509 394.49853516 295.26647949 C395.7519873 295.28295532 397.00543945 295.29943115 398.296875 295.31640625 C399.45268066 295.33505737 400.60848633 295.3537085 401.79931641 295.3729248 C406.1161333 295.44121455 410.4330758 295.50136833 414.75 295.5625 C424.4025 295.706875 434.055 295.85125 444 296 C444 328.67 444 361.34 444 395 C433.935 395.04125 423.87 395.0825 413.5 395.125 C408.78493164 395.15231201 408.78493164 395.15231201 403.97460938 395.18017578 C401.43099131 395.18602718 398.88737134 395.19112119 396.34375 395.1953125 C395.06532227 395.20554443 393.78689453 395.21577637 392.46972656 395.22631836 C380.37045125 395.22860815 368.35078041 394.17520717 356.625 391.0625 C355.62509033 390.7982019 355.62509033 390.7982019 354.60498047 390.52856445 C352.73382168 390.02954335 350.86672005 389.51537706 349 389 C347.71609375 388.66355469 347.71609375 388.66355469 346.40625 388.3203125 C337.71527121 385.90945879 329.37035495 382.3280823 321 379 C321 378.34 321 377.68 321 377 C320.360625 376.7525 319.72125 376.505 319.0625 376.25 C315.00011649 374.59188428 311.00275094 372.7964416 307 371 C307 370.34 307 369.68 307 369 C305.68 368.67 304.36 368.34 303 368 C303 367.34 303 366.68 303 366 C302.13632813 365.77054688 301.27265625 365.54109375 300.3828125 365.3046875 C296.58368731 363.83943598 293.89267744 361.77222088 290.875 359.125 C290.36324219 358.69058594 289.85148437 358.25617188 289.32421875 357.80859375 C287.03753352 355.85109714 284.88266275 353.87334355 282.8359375 351.6640625 C282.23007813 351.11492187 281.62421875 350.56578125 281 350 C277.80045046 350.14349347 277.80045046 350.14349347 275 351 C275 351.66 275 352.32 275 353 C272.99769039 354.78016887 270.99348775 356.42991671 268.875 358.0625 C268.24916016 358.548396 267.62332031 359.03429199 266.97851562 359.53491211 C250.30660944 372.29491623 250.30660944 372.29491623 241 375 C241 375.66 241 376.32 241 377 C239.02 377.33 237.04 377.66 235 378 C235 378.66 235 379.32 235 380 C233.42032193 380.67528223 231.83608097 381.33989694 230.25 382 C229.36828125 382.37125 228.4865625 382.7425 227.578125 383.125 C225 384 225 384 221 384 C221 384.66 221 385.32 221 386 C219.98421875 386.25394531 218.9684375 386.50789063 217.921875 386.76953125 C217.26179443 386.93469238 216.60171387 387.09985352 215.92163086 387.27001953 C214.4591698 387.63534707 212.99643586 387.99958377 211.53344727 388.36279297 C208.27915041 389.17200795 205.03123921 389.99159091 201.79296875 390.86328125 C170.22539703 399.28417932 132.25482643 397.60650945 102.58203125 383.203125 C98.17640098 381.15027458 93.58933674 379.58895798 89 378 C89 377.34 89 376.68 89 376 C88.4423999 375.84289551 87.8847998 375.68579102 87.31030273 375.52392578 C81.52682439 373.76551407 76.9618492 371.38280005 72.0625 367.875 C71.02935669 367.15183594 71.02935669 367.15183594 69.9753418 366.4140625 C65.01943109 362.88531943 60.49127601 359.10524715 56.11328125 354.875 C54.04709167 352.91338952 54.04709167 352.91338952 51.484375 351.55859375 C48.58978672 349.74264922 46.99318335 347.78025234 44.9375 345.0625 C42.45463244 341.80281447 39.90757592 338.88309107 37 336 C35.11351248 333.09771151 33.50094152 330.11734008 32 327 C31.34 327 30.68 327 30 327 C28.36136603 324.56866946 26.85078666 322.15228465 25.375 319.625 C24.74464844 318.57699219 24.74464844 318.57699219 24.1015625 317.5078125 C21 312.27140828 21 312.27140828 21 310 C20.34 310 19.68 310 19 310 C18.67386719 309.11957031 18.34773438 308.23914063 18.01171875 307.33203125 C17.35623047 305.58986328 17.35623047 305.58986328 16.6875 303.8125 C16.25824219 302.66394531 15.82898437 301.51539063 15.38671875 300.33203125 C14.12928774 297.08246572 14.12928774 297.08246572 12.55078125 294.5859375 C5.49112359 282.81391389 2.64288458 269.45201976 1 256 C0.83174996 254.84710732 0.66349993 253.69421463 0.49015141 252.5063858 C-0.12660073 247.54042686 -0.13571588 242.62121639 -0.12025452 237.6229248 C-0.12110894 236.60336842 -0.12196337 235.58381204 -0.12284368 234.53336 C-0.12448545 231.13094585 -0.11899849 227.72858145 -0.11352539 224.32617188 C-0.11324321 221.88167319 -0.11340185 219.43717442 -0.1139679 216.99267578 C-0.11419531 211.73696923 -0.11136637 206.48127383 -0.10573006 201.22557068 C-0.09758633 193.62680367 -0.09499689 186.02804266 -0.09374207 178.42927176 C-0.09155606 166.0993288 -0.08490821 153.76939248 -0.07543945 141.43945312 C-0.06625366 129.46549513 -0.05917854 117.49153894 -0.05493164 105.51757812 C-0.05466892 104.77890501 -0.05440619 104.04023189 -0.05413551 103.27917475 C-0.05283043 99.57329016 -0.05156673 95.86740556 -0.05032361 92.16152096 C-0.03996504 61.44100817 -0.0215343 30.72050757 0 0 Z " fill="#FDFDFD" transform="translate(1027,180)"/>
<path d="M0 0 C32.67 0 65.34 0 99 0 C99 92.07 99 184.14 99 279 C66.33 279 33.66 279 0 279 C0 186.93 0 94.86 0 0 Z " fill="#FDFDFD" transform="translate(1487,181)"/>
<path d="M0 0 C32.67 0 65.34 0 99 0 C99 32.67 99 65.34 99 99 C66.33 99 33.66 99 0 99 C0 66.33 0 33.66 0 0 Z " fill="#FCFCFC" transform="translate(1487,476)"/>
<path d="M0 0 C32.67 0 65.34 0 99 0 C99 32.67 99 65.34 99 99 C66.33 99 33.66 99 0 99 C0 66.33 0 33.66 0 0 Z " fill="#FBFBFB" transform="translate(18,476)"/>
<path d="M0 0 C1.25562744 0.00628418 1.25562744 0.00628418 2.53662109 0.01269531 C8.67123526 0.12486293 13.94613042 0.88923469 19.625 3.3125 C20.33011719 3.56773437 21.03523438 3.82296875 21.76171875 4.0859375 C36.19985558 9.73677023 46.78489896 19.88740069 53.6171875 33.6953125 C56.34049638 40.76747123 56.96470908 47.1777936 56.9375 54.6875 C56.95361328 55.56921875 56.96972656 56.4509375 56.98632812 57.359375 C56.99721808 72.21326858 50.00415841 84.77623237 39.75 95.22265625 C26.50372894 107.37397346 12.33441174 111.06751112 -5.28759766 110.44433594 C-20.01472432 109.51420162 -32.50814529 101.89897945 -42.375 91.3125 C-44.63020132 88.4337191 -46.53952625 85.47094509 -48.375 82.3125 C-49.4578125 80.6728125 -49.4578125 80.6728125 -50.5625 79 C-56.21127724 68.64784757 -57.1712397 54.52591402 -54.6875 43.0625 C-51.40221209 33.67596311 -48.05840477 25.78982974 -41.375 18.3125 C-40.82972656 17.68601562 -40.28445313 17.05953125 -39.72265625 16.4140625 C-29.42783894 5.31988291 -14.91355254 -0.1021682 0 0 Z " fill="#030303" transform="translate(1070.375,608.6875)"/>
<path d="M0 0 C32.34 0 64.68 0 98 0 C98 32.67 98 65.34 98 99 C82.015625 99.020625 66.03125 99.04125 49.5625 99.0625 C44.50752197 99.071604 39.45254395 99.08070801 34.24438477 99.09008789 C28.0916748 99.09460449 28.0916748 99.09460449 25.2151947 99.09544373 C23.19773641 99.09698357 21.18027906 99.10050931 19.16282654 99.10557556 C16.11447541 99.11285072 13.06618072 99.1139075 10.01782227 99.11352539 C9.11268922 99.1171235 8.20755617 99.12072161 7.27499485 99.12442875 C1.11402634 99.11402634 1.11402634 99.11402634 0 98 C-0.09531084 94.95594277 -0.12550333 91.93471388 -0.11352539 88.89038086 C-0.11364593 87.91886613 -0.11376646 86.9473514 -0.11389065 85.94639683 C-0.11314126 82.78585625 -0.10551183 79.62537385 -0.09765625 76.46484375 C-0.09618691 74.51989775 -0.09516615 72.57495136 -0.09460449 70.63000488 C-0.08935066 63.39916391 -0.07538959 56.16833139 -0.0625 48.9375 C-0.041875 32.788125 -0.02125 16.63875 0 0 Z " fill="#FCFCFC" transform="translate(671,476)"/>
<path d="M0 0 C39.8804878 0 39.8804878 0 48.62890625 8.6015625 C54.55791239 15.08775235 55.40152067 21.16432342 55.25390625 29.8046875 C54.6588756 37.29291931 51.60839263 42.92225334 45.875 47.8125 C44 49 44 49 42 49 C42 49.66 42 50.32 42 51 C44.97 51.495 44.97 51.495 48 52 C48 52.66 48 53.32 48 54 C48.721875 54.20625 49.44375 54.4125 50.1875 54.625 C54.70493831 56.8335254 57.26160625 60.16806809 59.12890625 64.80078125 C61.38829346 73.09871008 60.92033059 82.71256915 56.7421875 90.27734375 C53.77262149 95.07373701 51.04701155 98.26620208 46 101 C45.01 101.556875 44.02 102.11375 43 102.6875 C30.51226854 108.15088251 10.12734902 105 0 105 C0 70.35 0 35.7 0 0 Z " fill="#EFEFEF" transform="translate(1224,612)"/>
<path d="M0 0 C3.12703222 1.56351611 3.50600831 4.19667456 4.8125 7.375 C5.34791435 8.66189318 5.88438476 9.94834746 6.421875 11.234375 C6.68806641 11.87439453 6.95425781 12.51441406 7.22851562 13.17382812 C8.28806131 15.68186664 9.42068975 18.15348667 10.5625 20.625 C12.81265245 25.51726693 14.86997886 30.47616915 16.88671875 35.46875 C17.98628275 38.16660189 17.98628275 38.16660189 20 41 C20.68025637 42.99541868 21.34490497 44.99617991 22 47 C23.76007085 51.40017712 25.7898698 55.58756503 27.9375 59.8125 C30.1884807 64.27565138 32.19412574 68.74295973 33.98828125 73.40625 C35.58012285 77.48726477 37.32393978 81.5041484 39.046875 85.53125 C40 88 40 88 40 90 C40.66 90 41.32 90 42 90 C42.0928125 88.8553125 42.0928125 88.8553125 42.1875 87.6875 C43.34487791 82.43478486 45.67197995 77.8278497 48 73 C48.66 73 49.32 73 50 73 C50.14308594 72.02160156 50.14308594 72.02160156 50.2890625 71.0234375 C51.22887955 67.02663311 52.77823121 63.39918077 54.375 59.625 C54.67921875 58.89539063 54.9834375 58.16578125 55.296875 57.4140625 C57.17022463 52.93083262 59.0803183 48.46355439 61 44 C61.66 44 62.32 44 63 44 C63.103125 43.154375 63.20625 42.30875 63.3125 41.4375 C64.0828854 37.58557299 65.36274514 34.55924969 67 31 C67.66 31 68.32 31 69 31 C69.12246094 30.28457031 69.24492187 29.56914063 69.37109375 28.83203125 C70.01135375 25.94887287 70.93551556 23.41407527 72.0625 20.6875 C72.42472656 19.80449219 72.78695312 18.92148437 73.16015625 18.01171875 C73.57587891 17.01591797 73.57587891 17.01591797 74 16 C74.66 16 75.32 16 76 16 C76.10957031 15.43152344 76.21914062 14.86304688 76.33203125 14.27734375 C77.37938166 9.17683242 78.79271753 4.715558 81 0 C81.66 0 82.32 0 83 0 C83.08040527 0.72477539 83.16081055 1.44955078 83.24365234 2.19628906 C83.61741718 5.54790927 83.99618531 8.89894694 84.375 12.25 C84.50132812 13.38953125 84.62765625 14.5290625 84.7578125 15.703125 C85.50926289 22.31588846 86.44622495 28.85708021 87.58056641 35.41455078 C88.21163292 39.30453584 88.43702915 43.1837475 88.65625 47.11328125 C88.92793758 50.0972609 88.92793758 50.0972609 89.97265625 53.25 C91.20353653 57.74294702 91.57939591 62.05717096 91.9375 66.6875 C92.63527918 74.91226255 93.65234893 83.02474063 95.03491211 91.1628418 C95.90831157 96.510656 96.11878036 101.57929627 96 107 C92.37 107 88.74 107 85 107 C84.92483154 105.64805542 84.92483154 105.64805542 84.84814453 104.26879883 C84.65555544 100.85962252 84.45726965 97.45086933 84.25537109 94.04223633 C84.16982535 92.57914786 84.0864199 91.11593236 84.00537109 89.65258789 C83.61100057 82.5563529 83.17418699 75.54951147 82 68.53125 C80.68228074 60.62062817 80.3035195 52.6850731 79.875 44.6875 C79.78833292 43.15686852 79.7010966 41.62626916 79.61328125 40.09570312 C79.40231358 36.39748123 79.19897163 32.69888905 79 29 C78.34 29 77.68 29 77 29 C76.649375 30.175625 76.29875 31.35125 75.9375 32.5625 C74.00965771 38.38292337 71.35919528 43.83036587 68.71875 49.3515625 C67.04607256 52.8597858 65.51900946 56.4224422 64 60 C63.21474702 61.7528873 62.42343911 63.50307954 61.625 65.25 C60.31343286 68.1212686 59.003222 70.99284541 57.70703125 73.87109375 C55.88934591 77.90355876 54.07096146 81.90345628 52 85.8125 C49.5388782 90.60521087 47.94395666 95.72896951 46.24609375 100.828125 C45.11425248 103.7091755 44.10279045 105.74661182 42 108 C41.34 108 40.68 108 40 108 C38.84917315 105.75243216 37.70423142 103.50218252 36.5625 101.25 C36.23701172 100.61578125 35.91152344 99.9815625 35.57617188 99.328125 C34.02936335 96.26640092 32.6084922 93.39384379 32 90 C31.34 90 30.68 90 30 90 C29.9175 88.96875 29.835 87.9375 29.75 86.875 C28.92822857 82.62918096 27.45796114 80.50073253 25 77 C23.59646151 73.38034811 22.67405809 69.81966252 22 66 C21.34 66 20.68 66 20 66 C19.16280617 63.70967689 18.3301071 61.41789043 17.5 59.125 C17.26152344 58.47402344 17.02304688 57.82304688 16.77734375 57.15234375 C15 52.2265625 15 52.2265625 15 50 C14.34 50 13.68 50 13 50 C12.75765625 49.27554688 12.5153125 48.55109375 12.265625 47.8046875 C10.37484056 42.35050163 8.57466803 37.56078335 5 33 C4.67 33 4.34 33 4 33 C-0.00990285 69.95377961 -0.00990285 69.95377961 -3 107 C-6.3 107 -9.6 107 -13 107 C-13.11915395 100.51286615 -12.69739919 94.31579386 -11.86328125 87.88671875 C-11.74359482 86.9309343 -11.62390839 85.97514984 -11.50059509 84.99040222 C-11.11034916 81.88867089 -10.71174055 78.78808536 -10.3125 75.6875 C-10.03916317 73.53469651 -9.76605329 71.38186418 -9.49316406 69.22900391 C-7.14581765 50.79821781 -4.62954327 32.39245994 -2 14 C-1.80530521 12.63574694 -1.61064404 11.27148909 -1.41601562 9.90722656 C-0.94458559 6.60473509 -0.47258865 3.30232584 0 0 Z " fill="#ECECEC" transform="translate(177,610)"/>
<path d="M0 0 C0.66 0 1.32 0 2 0 C3.19287411 3.87684087 4 6.91621923 4 11 C4.66 11 5.32 11 6 11 C6.18175781 11.70125 6.36351562 12.4025 6.55078125 13.125 C7.85684713 18.05456147 9.25023602 22.83142391 11.12109375 27.58203125 C12.35384853 30.97347661 13.38391603 34.42484994 14.4375 37.875 C15.80214781 42.32712536 17.19991106 46.7001924 19 51 C21.3423302 56.60452287 23.05182297 62.38942168 24.828125 68.19140625 C26.14972236 72.48659769 27.55621903 76.74464556 29 81 C32.21207429 74.45688571 34.32442391 67.86052226 36.2487793 60.85375977 C37.18835853 57.48931261 38.04579154 54.93131269 40 52 C40.61247896 50.12778721 40.61247896 50.12778721 41.03515625 48.09375 C41.28942383 46.97806641 41.28942383 46.97806641 41.54882812 45.83984375 C41.8030957 44.68162109 41.8030957 44.68162109 42.0625 43.5 C42.4063871 41.96848795 42.75139539 40.43722711 43.09765625 38.90625 C43.24726807 38.22884766 43.39687988 37.55144531 43.55102539 36.85351562 C43.94850849 35.21257396 44.46608218 33.60175346 45 32 C45.66 32 46.32 32 47 32 C47.18175781 31.09121094 47.18175781 31.09121094 47.3671875 30.1640625 C47.72145468 28.3927266 48.07843896 26.62193288 48.4375 24.8515625 C48.7911838 23.05858212 49.12717535 21.26192875 49.4375 19.4609375 C50.54443707 13.23441649 52.50765447 7.81547291 55 2 C58.3 2 61.6 2 65 2 C63.66798413 10.52490154 60.85496495 18.11577155 57.73730469 26.109375 C54.91108302 33.35648115 52.50325099 40.35847415 51 48 C50.34 48 49.68 48 49 48 C48.90203125 48.75023437 48.8040625 49.50046875 48.703125 50.2734375 C48.55359375 51.29695312 48.4040625 52.32046875 48.25 53.375 C48.11078125 54.37273438 47.9715625 55.37046875 47.828125 56.3984375 C46.96598516 60.14793244 45.67262511 63.40986046 44.20361328 66.953125 C41.91623614 72.74348337 40.01156902 78.6706668 38.0534668 84.57885742 C37.30772754 86.82688658 36.55552549 89.07268312 35.80273438 91.31835938 C35.32253142 92.76028843 34.84270028 94.20234137 34.36328125 95.64453125 C34.14037918 96.309189 33.91747711 96.97384674 33.68782043 97.65864563 C32.55820805 101.08184571 31.61359641 104.44641361 31 108 C30.34 108 29.68 108 29 108 C28.74605469 107.14277344 28.49210937 106.28554688 28.23046875 105.40234375 C26.13383229 98.21910082 26.13383229 98.21910082 23.4375 91.25 C20.34211628 84.25174115 18.44924031 77.04922035 16.74609375 69.6015625 C16.08455035 66.79767477 16.08455035 66.79767477 14 64 C13.35106917 62.05604126 12.75337833 60.09473819 12.1875 58.125 C10.79418865 53.44596935 9.23934357 48.91217236 7.4375 44.375 C4.71672054 37.44708934 2 30.50536757 2 23 C1.34 23 0.68 23 0 23 C-0.17656128 24.24958496 -0.17656128 24.24958496 -0.35668945 25.52441406 C-1.05996225 29.32395545 -2.11967623 32.93621241 -3.29296875 36.609375 C-3.51957687 37.32943726 -3.746185 38.04949951 -3.97966003 38.79138184 C-4.71143825 41.11226276 -5.44922551 43.43117819 -6.1875 45.75 C-6.69304956 47.34727425 -7.19842022 48.94460514 -7.70361328 50.54199219 C-11.036892 61.06179394 -14.44807445 71.55187438 -18 82 C-20.79910994 90.29455472 -23.56584134 98.58928918 -26 107 C-26.66 107 -27.32 107 -28 107 C-31.5885488 97.91939479 -34.8248785 88.77567069 -37.875 79.5 C-38.31470624 78.17071231 -38.75473386 76.84153088 -39.19506836 75.51245117 C-40.06717965 72.87904891 -40.93783832 70.24517453 -41.80712891 67.61083984 C-43.38271077 62.84152838 -44.97145417 58.07666987 -46.5625 53.3125 C-48.47676276 47.57600299 -50.38588284 41.83784099 -52.2890625 36.09765625 C-52.68665771 34.90035889 -53.08425293 33.70306152 -53.49389648 32.46948242 C-54.26549694 30.14584293 -55.03592331 27.82181309 -55.80493164 25.49731445 C-57.84318198 19.36416351 -59.97004254 13.28448015 -62.27661133 7.24658203 C-63 5 -63 5 -63 2 C-59.7 2 -56.4 2 -53 2 C-47.82421875 17.52734375 -47.82421875 17.52734375 -46.90039062 20.30273438 C-46.31368813 22.06029651 -45.72399096 23.8168627 -45.13085938 25.57226562 C-44.86466797 26.36181641 -44.59847656 27.15136719 -44.32421875 27.96484375 C-44.08920654 28.65827881 -43.85419434 29.35171387 -43.61206055 30.06616211 C-42.82847795 32.54193306 -42.25969997 35.06150513 -41.65625 37.5859375 C-39.74808923 44.6052432 -37.20315924 51.4726492 -34.85546875 58.35546875 C-33.38841694 62.69068928 -31.94642292 66.98569622 -30.875 71.4375 C-30.10664578 74.92261919 -30.10664578 74.92261919 -28.875 77.8125 C-28 80 -28 80 -28 83 C-27.34 83 -26.68 83 -26 83 C-25.62488281 81.15535156 -25.62488281 81.15535156 -25.2421875 79.2734375 C-23.90660293 73.27152229 -22.02348347 67.46865917 -20.125 61.625 C-19.78597656 60.56539062 -19.44695312 59.50578125 -19.09765625 58.4140625 C-17.45952675 53.33150102 -15.75894778 48.28836221 -13.90234375 43.28125 C-12.1542049 38.53471025 -10.7298523 33.7626667 -9.4375 28.875 C-7.80081603 22.84769823 -6.11982232 16.87868253 -4 11 C-3.64679688 10.01773438 -3.29359375 9.03546875 -2.9296875 8.0234375 C-1.96045787 5.34619481 -0.98385683 2.67189546 0 0 Z " fill="#EDEDED" transform="translate(421,610)"/>
<path d="M0 0 C5.79129337 3.77578246 11.2374136 8.63360722 15.0703125 14.42578125 C15.0703125 15.74578125 15.0703125 17.06578125 15.0703125 18.42578125 C14.11125 18.85890625 14.11125 18.85890625 13.1328125 19.30078125 C10.91825171 20.25401576 10.91825171 20.25401576 10.0703125 22.42578125 C6.63965358 21.28222828 6.3092253 20.63618016 4.3828125 17.73828125 C-1.04415542 10.28453415 -8.12696716 6.00329791 -16.9296875 3.42578125 C-20.96946556 2.89364357 -24.92248369 2.86408012 -28.9921875 2.92578125 C-30.01634766 2.9103125 -31.04050781 2.89484375 -32.09570312 2.87890625 C-43.11470235 2.9352334 -50.89571959 7.04609482 -58.9296875 14.42578125 C-61.33655638 16.90507905 -63.16143024 19.45920088 -64.9296875 22.42578125 C-65.49042969 23.36550781 -66.05117188 24.30523438 -66.62890625 25.2734375 C-72.46816321 36.69333632 -73.11605461 50.24944438 -70.00390625 62.66796875 C-67.74932149 69.49781834 -64.64723798 75.03257136 -59.9296875 80.42578125 C-59.33414063 81.25464844 -58.73859375 82.08351563 -58.125 82.9375 C-55.59446736 85.80573717 -53.31433427 87.05258946 -49.8671875 88.67578125 C-48.82433594 89.1759375 -47.78148437 89.67609375 -46.70703125 90.19140625 C-43.92862141 91.47965005 -43.92862141 91.47965005 -40.9296875 92.42578125 C-40.9296875 93.08578125 -40.9296875 93.74578125 -40.9296875 94.42578125 C-25.76806702 95.00214697 -12.17305004 94.6114358 0.0703125 84.42578125 C7.72532111 77.11872758 9.93222304 67.6685864 11.0703125 57.42578125 C-0.8096875 57.42578125 -12.6896875 57.42578125 -24.9296875 57.42578125 C-24.9296875 49.42578125 -24.9296875 49.42578125 -23.9296875 48.42578125 C-22.48678963 48.3328231 -21.03938965 48.30831612 -19.59350586 48.31225586 C-18.6726268 48.31233139 -17.75174774 48.31240692 -16.80296326 48.31248474 C-15.80193069 48.31764603 -14.80089813 48.32280731 -13.76953125 48.328125 C-12.74992813 48.32953995 -11.73032501 48.3309549 -10.67982483 48.33241272 C-7.40891643 48.33803028 -4.13807537 48.35058575 -0.8671875 48.36328125 C1.34440006 48.36829399 3.55598868 48.37285729 5.76757812 48.37695312 C11.20184607 48.38800541 16.63607447 48.40476062 22.0703125 48.42578125 C22.38070816 62.50368358 20.37436768 73.67804965 12.0703125 85.42578125 C11.3278125 86.47765625 10.5853125 87.52953125 9.8203125 88.61328125 C-0.29706346 98.96059757 -12.6270812 103.46400918 -26.88598633 103.96679688 C-42.25758043 104.08771404 -55.28624619 100.60530905 -66.6953125 89.80859375 C-74.20250143 81.88433877 -78.04926924 75.1144745 -79.9296875 64.42578125 C-80.5896875 64.42578125 -81.2496875 64.42578125 -81.9296875 64.42578125 C-84.50959297 51.48497543 -84.27570558 37.05793508 -77.921875 25.32421875 C-76.76647623 23.20792315 -76.76647623 23.20792315 -75.6171875 19.92578125 C-70.96671056 10.28034759 -60.53003096 0.1661208 -50.39453125 -3.48828125 C-49.56050781 -3.72289062 -48.72648438 -3.9575 -47.8671875 -4.19921875 C-47.03058594 -4.43898438 -46.19398438 -4.67875 -45.33203125 -4.92578125 C-44.53925781 -5.13976562 -43.74648438 -5.35375 -42.9296875 -5.57421875 C-42.30682861 -5.74695313 -41.68396973 -5.9196875 -41.04223633 -6.09765625 C-27.36993156 -9.18194365 -12.20539087 -6.55836336 0 0 Z " fill="#EBEBEB" transform="translate(770.9296875,615.57421875)"/>
<path d="M0 0 C1.25562744 0.00628418 1.25562744 0.00628418 2.53662109 0.01269531 C8.67123526 0.12486293 13.94613042 0.88923469 19.625 3.3125 C20.33011719 3.56773437 21.03523438 3.82296875 21.76171875 4.0859375 C36.19985558 9.73677023 46.78489896 19.88740069 53.6171875 33.6953125 C56.34049638 40.76747123 56.96470908 47.1777936 56.9375 54.6875 C56.95361328 55.56921875 56.96972656 56.4509375 56.98632812 57.359375 C56.99721808 72.21326858 50.00415841 84.77623237 39.75 95.22265625 C26.50372894 107.37397346 12.33441174 111.06751112 -5.28759766 110.44433594 C-20.01472432 109.51420162 -32.50814529 101.89897945 -42.375 91.3125 C-44.63020132 88.4337191 -46.53952625 85.47094509 -48.375 82.3125 C-49.4578125 80.6728125 -49.4578125 80.6728125 -50.5625 79 C-56.21127724 68.64784757 -57.1712397 54.52591402 -54.6875 43.0625 C-51.40221209 33.67596311 -48.05840477 25.78982974 -41.375 18.3125 C-40.82972656 17.68601562 -40.28445313 17.05953125 -39.72265625 16.4140625 C-29.42783894 5.31988291 -14.91355254 -0.1021682 0 0 Z M-17.375 11.3125 C-17.375 11.9725 -17.375 12.6325 -17.375 13.3125 C-18.365 13.374375 -18.365 13.374375 -19.375 13.4375 C-28.09294955 15.98023529 -35.31259556 24.3118649 -39.91796875 31.83203125 C-45.63007504 42.73696144 -47.54768186 54.93600339 -44.4296875 66.95703125 C-39.7706559 79.54227699 -32.02164664 92.24809289 -19.65234375 98.421875 C-16.56286797 99.6301091 -13.48553794 100.37766086 -10.22265625 100.953125 C-8.375 101.3125 -8.375 101.3125 -6.375 102.3125 C1.60629677 102.90794825 8.25502863 102.35344314 15.625 99.3125 C16.41261719 99.06886719 17.20023438 98.82523438 18.01171875 98.57421875 C28.49895598 95.10042431 36.65495744 87.05084907 41.625 77.3125 C42.08777344 76.59707031 42.55054688 75.88164063 43.02734375 75.14453125 C46.76014701 68.64056103 47.1213976 62.46175963 47.1875 55.125 C47.20208252 54.18640137 47.21666504 53.24780273 47.23168945 52.28076172 C47.15138093 46.77597722 46.37645613 42.79129771 43.59619141 38.01196289 C42.625 36.3125 42.625 36.3125 41.4375 32.9375 C37.49847715 23.66173652 27.79021781 15.45716382 18.69970703 11.4675293 C12.59694434 9.16522842 6.97360148 8.8893023 0.5 9 C-0.45003906 8.99677734 -1.40007812 8.99355469 -2.37890625 8.99023438 C-7.75686214 9.031259 -12.29051879 9.54490335 -17.375 11.3125 Z " fill="#EEEEEE" transform="translate(1070.375,608.6875)"/>
<path d="M0 0 C3.19059909 2.62920335 4.23052419 5.6259845 5.6875 9.4375 C6.21188518 10.78920004 6.73664486 12.14075484 7.26171875 13.4921875 C7.54063965 14.21760742 7.81956055 14.94302734 8.10693359 15.69042969 C9.7064497 19.8269585 11.35397339 23.94430564 13 28.0625 C13.3417627 28.91948486 13.68352539 29.77646973 14.03564453 30.65942383 C15.97835007 35.51247846 17.97922091 40.33068039 20.0625 45.125 C22.36777771 50.43089735 24.49064767 55.78775576 26.5625 61.1875 C28.8230354 67.07721103 31.21823032 72.85088127 33.88671875 78.5703125 C35.75569096 82.64926237 37.37398136 86.81967597 39 91 C39.44859375 92.12535156 39.8971875 93.25070312 40.359375 94.41015625 C40.81828125 95.57417969 41.2771875 96.73820313 41.75 97.9375 C42.17796875 99.01902344 42.6059375 100.10054687 43.046875 101.21484375 C44 104 44 104 44 107 C40.7 107 37.4 107 34 107 C30.90537614 100.55709459 28.24050039 94.13117175 26.08984375 87.3125 C24.50734437 82.50260941 22.73042678 77.75867365 21 73 C-0.78 72.505 -0.78 72.505 -23 72 C-23.99 75.96 -24.98 79.92 -26 84 C-26.90639368 86.42430097 -27.87457315 88.82763322 -28.9375 91.1875 C-29.45441406 92.34894531 -29.97132812 93.51039063 -30.50390625 94.70703125 C-30.99761719 95.79371094 -31.49132813 96.88039063 -32 98 C-32.79260979 99.79124964 -33.5844283 101.58284991 -34.375 103.375 C-34.91125 104.57125 -35.4475 105.7675 -36 107 C-38.97 107 -41.94 107 -45 107 C-44.38103189 103.40224787 -43.40075316 100.24298739 -42 96.875 C-40.91805888 94.25765713 -39.89614813 91.6884444 -39 89 C-38.34 89 -37.68 89 -37 89 C-36.89042969 88.43152344 -36.78085938 87.86304688 -36.66796875 87.27734375 C-35.62061834 82.17683242 -34.20728247 77.715558 -32 73 C-31.34 73 -30.68 73 -30 73 C-29.9175 71.824375 -29.835 70.64875 -29.75 69.4375 C-29.28475737 65.69590085 -28.11310458 63.1046403 -26.09765625 59.8828125 C-23.91924662 56.14618104 -22.55314967 52.02551038 -21 48 C-19.923099 45.28908491 -18.83630734 42.582157 -17.75 39.875 C-17.22379623 38.55996069 -16.69774152 37.24486171 -16.171875 35.9296875 C-15.78515625 34.96289062 -15.3984375 33.99609375 -15 33 C-14.34 33 -13.68 33 -13 33 C-12.89042969 32.43152344 -12.78085938 31.86304688 -12.66796875 31.27734375 C-11.62061834 26.17683242 -10.20728247 21.715558 -8 17 C-7.34 17 -6.68 17 -6 17 C-5.90203125 16.35933594 -5.8040625 15.71867188 -5.703125 15.05859375 C-4.69296191 9.21532275 -3.24025175 4.96838601 0 0 Z " fill="#EBEBEB" transform="translate(1412,610)"/>
<path d="M0 0 C2.92201668 2.09736923 5.69514813 4.22516437 8 7 C8 7.99 8 8.98 8 10 C5.11165997 12.10770759 3.61537605 13 0 13 C-0.5775 12.236875 -1.155 11.47375 -1.75 10.6875 C-5.0905016 6.69745642 -8.46096065 5.28960918 -13.5 4.71484375 C-18.57066754 4.54129412 -21.82206809 4.86655107 -26 8 C-26.66 8 -27.32 8 -28 8 C-28.68620031 9.32338632 -29.34786461 10.65949948 -30 12 C-30.37125 12.763125 -30.7425 13.52625 -31.125 14.3125 C-32.73014749 19.24259586 -32.20607824 24.02492726 -31 29 C-29.515 29.495 -29.515 29.495 -28 30 C-26.74609375 31.41796875 -26.74609375 31.41796875 -25.4375 33.1875 C-21.05791518 38.51105548 -14.82010728 42.64855017 -8 44 C-8 44.66 -8 45.32 -8 46 C-7.34 46.20625 -6.68 46.4125 -6 46.625 C1.62601797 50.12025824 7.45063101 55.79750025 12.140625 62.671875 C14.8632154 70.0476199 14.06764697 81.45499547 11.3125 88.75 C7.33566598 96.82837712 1.51908468 101.81218604 -6.828125 105.12109375 C-15.11183374 107.41645639 -25.33746044 107.19298889 -33 103 C-38.04678955 99.42481456 -41.98577446 95.40048742 -45 90 C-45 89.34 -45 88.68 -45 88 C-45.66 88 -46.32 88 -47 88 C-47 87.01 -47 86.02 -47 85 C-44.03 84.01 -41.06 83.02 -38 82 C-37.63648438 82.67546875 -37.27296875 83.3509375 -36.8984375 84.046875 C-33.14547751 90.70597323 -30.41335407 94.52888198 -23 97 C-15.67120075 97.73287992 -9.21137406 97.21855821 -3 93 C-0.50459629 90.13384514 -0.50459629 90.13384514 1 87 C1.35449219 86.43023438 1.70898438 85.86046875 2.07421875 85.2734375 C3.39696268 82.02518024 3.34011474 79.12050353 3.375 75.625 C3.41753906 73.69527344 3.41753906 73.69527344 3.4609375 71.7265625 C2.82751584 66.60550939 0.83998265 63.64037901 -2.98046875 60.234375 C-7.68266491 57.07183599 -12.46335377 54.12808853 -17.37133789 51.29907227 C-38.24420593 39.26738222 -38.24420593 39.26738222 -42 28 C-43.26624417 12.75080231 -43.26624417 12.75080231 -38.55078125 6.640625 C-27.88680374 -4.64116481 -14.13362079 -8.25461044 0 0 Z " fill="#EEEEEE" transform="translate(60,613)"/>
<path d="M0 0 C4.455 -0.103125 8.91 -0.20625 13.5 -0.3125 C15.58344727 -0.38078003 15.58344727 -0.38078003 17.70898438 -0.45043945 C26.38563339 -0.54744469 31.24712201 0.70035304 37.63085938 6.4753418 C41.33229503 10.59721513 41.4958355 17.08323197 41.3828125 22.37109375 C40.52074232 28.29122878 37.70057277 33.2558228 33.5625 37.5 C28.78155322 40.29860299 24.45279147 41.25209063 18.9453125 41.1953125 C17.94516113 41.19031738 16.94500977 41.18532227 15.91455078 41.18017578 C14.66399902 41.16196777 13.41344727 41.14375977 12.125 41.125 C8.12375 41.08375 4.1225 41.0425 0 41 C0 27.47 0 13.94 0 0 Z " fill="#080808" transform="translate(1233,668)"/>
<path d="M0 0 C3.3 0 6.6 0 10 0 C10 31.68 10 63.36 10 96 C21.88 96 33.76 96 46 96 C46 98.97 46 101.94 46 105 C30.82 105 15.64 105 0 105 C0 70.35 0 35.7 0 0 Z " fill="#ECECEC" transform="translate(1543,612)"/>
<path d="M0 0 C3.3 0 6.6 0 10 0 C10 31.68 10 63.36 10 96 C21.88 96 33.76 96 46 96 C46 98.97 46 101.94 46 105 C30.82 105 15.64 105 0 105 C0 70.35 0 35.7 0 0 Z " fill="#EDEDED" transform="translate(889,612)"/>
<path d="M0 0 C3.795 -0.103125 7.59 -0.20625 11.5 -0.3125 C12.68013672 -0.35802002 13.86027344 -0.40354004 15.07617188 -0.45043945 C21.87315425 -0.53936014 26.92351735 0.19758816 32 5 C36.05420179 11.19621962 35.67880829 18.86786355 35 26 C33.4083392 30.7749824 31.27019222 33.34299151 27 36 C19 38 19 38 0 38 C0 25.46 0 12.92 0 0 Z " fill="#030303" transform="translate(1234,621)"/>
<path d="M0 0 C0.66 0 1.32 0 2 0 C3.66682302 3.73050866 5.17842504 7.42458722 6.4375 11.3125 C8.81908768 18.61851636 11.75599368 25.67162315 15.0703125 32.6015625 C16.37181837 35.95922891 17.12660765 39.50643061 18 43 C6.45 43 -5.1 43 -17 43 C-16.27876236 39.3938118 -15.62124338 36.76051033 -14.2578125 33.4609375 C-13.90106445 32.59178711 -13.54431641 31.72263672 -13.17675781 30.82714844 C-12.78842773 29.89418945 -12.40009766 28.96123047 -12 28 C-11.59362305 27.01290039 -11.18724609 26.02580078 -10.76855469 25.00878906 C-9.47733996 21.87806262 -8.17724218 18.75115407 -6.875 15.625 C-6.43285156 14.55894531 -5.99070312 13.49289062 -5.53515625 12.39453125 C-5.10847656 11.36972656 -4.68179687 10.34492187 -4.2421875 9.2890625 C-3.8591748 8.36818848 -3.47616211 7.44731445 -3.08154297 6.49853516 C-2.12478326 4.28826904 -1.10250476 2.14052458 0 0 Z " fill="#0A0A0A" transform="translate(1411,630)"/>
<path d="M0 0 C0.66 0 1.32 0 2 0 C2.33931227 2.66602496 2.67157176 5.33263014 3 8 C3.09539062 8.74378906 3.19078125 9.48757813 3.2890625 10.25390625 C3.89227676 15.20888051 4.09075591 20.00842496 4 25 C1.96780512 21.59648662 1.63108961 18.6767073 1.375 14.75 C1.30023438 13.67234375 1.22546875 12.5946875 1.1484375 11.484375 C1.09945312 10.66453125 1.05046875 9.8446875 1 9 C-0.32 9 -1.64 9 -3 9 C-2.01 6.03 -1.02 3.06 0 0 Z " fill="#555555" transform="translate(254,639)"/>
<path d="M0 0 C0.66 0.33 1.32 0.66 2 1 C1.54625 1.433125 1.0925 1.86625 0.625 2.3125 C-1.32997111 4.34266231 -2.74083543 6.48167087 -4 9 C-5.66279327 10.0064275 -7.32983484 11.00585407 -9 12 C-10.75149165 13.58245275 -10.75149165 13.58245275 -12 15 C-12.66 14.67 -13.32 14.34 -14 14 C-9.33333333 9.33333333 -4.66666667 4.66666667 0 0 Z " fill="#313131" transform="translate(566,291)"/>
<path d="M0 0 C2.4375 0.8125 2.4375 0.8125 4.4375 3.8125 C3.509375 3.585625 2.58125 3.35875 1.625 3.125 C0.573125 3.021875 -0.47875 2.91875 -1.5625 2.8125 C-3.16661246 4.16655861 -3.16661246 4.16655861 -4.5625 5.8125 C-7.25 6.5 -7.25 6.5 -9.5625 6.8125 C-8.9025 5.8225 -8.2425 4.8325 -7.5625 3.8125 C-6.9025 3.8125 -6.2425 3.8125 -5.5625 3.8125 C-5.5625 3.1525 -5.5625 2.4925 -5.5625 1.8125 C-2.5625 -0.1875 -2.5625 -0.1875 0 0 Z " fill="#4C4C4C" transform="translate(1307.5625,529.1875)"/>
<path d="M0 0 C0 3.23830467 -0.29194726 4.31591712 -2 7 C-3.64295195 8.36244796 -5.30824337 9.69864875 -7 11 C-7.33 11.66 -7.66 12.32 -8 13 C-8.66 13 -9.32 13 -10 13 C-8.56501627 9.79111679 -6.78256013 7.42193016 -4.4375 4.8125 C-3.81746094 4.11769531 -3.19742187 3.42289063 -2.55859375 2.70703125 C-1.72141231 1.79011824 -0.8779528 0.8779528 0 0 Z " fill="#CECECE" transform="translate(1033,623)"/>
<path d="M0 0 C2.89932357 2.39509338 3.50168276 4.31245243 4 8 C2.68 7.01 1.36 6.02 0 5 C-1.32 6.32 -2.64 7.64 -4 9 C-2.94124926 5.59687262 -1.99097846 2.98646769 0 0 Z " fill="#B9B9B9" transform="translate(1412,610)"/>
<path d="M0 0 C0.9962851 3.28462745 1.07377676 6.20360259 1 9.625 C0.81957237 13.46206317 0.81957237 13.46206317 2 17 C1.34 17.99 0.68 18.98 0 20 C-1.19231274 16.42306178 -1.1461202 13.15817447 -1.125 9.4375 C-1.12886719 8.75236328 -1.13273437 8.06722656 -1.13671875 7.36132812 C-1.12669335 2.2533867 -1.12669335 2.2533867 0 0 Z " fill="#B5B5B5" transform="translate(19,624)"/>
<path d="M0 0 C0.66 0.66 1.32 1.32 2 2 C0.92643323 3.15498897 -0.15929788 4.29867867 -1.25 5.4375 C-1.85328125 6.07558594 -2.4565625 6.71367188 -3.078125 7.37109375 C-5.10048016 9.08516306 -6.41270605 9.59358878 -9 10 C-8.2575 9.278125 -7.515 8.55625 -6.75 7.8125 C-4.30709485 5.31407427 -2.1318953 2.76356798 0 0 Z " fill="#303030" transform="translate(783,700)"/>
<path d="M0 0 C0.66 0.33 1.32 0.66 2 1 C0.88121617 2.17262904 -0.24523051 3.33795138 -1.375 4.5 C-2.00148438 5.1496875 -2.62796875 5.799375 -3.2734375 6.46875 C-5 8 -5 8 -7 8 C-5.50902342 4.2047869 -3.24299151 2.38957269 0 0 Z " fill="#3C3C3C" transform="translate(128,283)"/>
<path d="M0 0 C0.93423645 3.01031744 1.04449911 3.86650268 0 7 C0.66 7.33 1.32 7.66 2 8 C1.01 8.66 0.02 9.32 -1 10 C-1.66 10.99 -2.32 11.98 -3 13 C-2.45144652 8.428721 -1.58255197 4.32564205 0 0 Z " fill="#4C4C4C" transform="translate(416,648)"/>
<path d="M0 0 C0.66 1.32 1.32 2.64 2 4 C-0.0072908 7.0109362 -0.83884224 7.63016497 -4 9 C-2.94124926 5.59687262 -1.99097846 2.98646769 0 0 Z " fill="#CBCBCB" transform="translate(35,241)"/>
<path d="M0 0 C0.66 1.32 1.32 2.64 2 4 C-0.66666667 5.33333333 -3.33333333 6.66666667 -6 8 C-4.02 5.36 -2.04 2.72 0 0 Z " fill="#343434" transform="translate(386,528)"/>
<path d="M0 0 C1.485 0.99 1.485 0.99 3 2 C3 2.66 3 3.32 3 4 C2.01 4.495 2.01 4.495 1 5 C-0.13350534 7.01669827 -0.13350534 7.01669827 -1 9 C-1.09765625 2.84765625 -1.09765625 2.84765625 -1 1 C-0.67 0.67 -0.34 0.34 0 0 Z " fill="#2B2B2B" transform="translate(181,642)"/>
<path d="M0 0 C1.18414294 3.55242882 0.69535532 4.69830562 -0.4375 8.1875 C-0.72496094 9.08855469 -1.01242187 9.98960937 -1.30859375 10.91796875 C-1.53675781 11.60503906 -1.76492188 12.29210937 -2 13 C-3.15469014 9.05842614 -2.82245557 6.03750918 -2 2 C-1.34 1.34 -0.68 0.68 0 0 Z " fill="#6D6D6D" transform="translate(470,629)"/>
<path d="M0 0 C0.66 1.32 1.32 2.64 2 4 C0.35 5.32 -1.3 6.64 -3 8 C-3.66 7.67 -4.32 7.34 -5 7 C-3.35 4.69 -1.7 2.38 0 0 Z " fill="#C5C5C5" transform="translate(1110,688)"/>
<path d="M0 0 C-1.485 1.485 -1.485 1.485 -3 3 C-3 2.34 -3 1.68 -3 1 C-5.31 1.66 -7.62 2.32 -10 3 C-9 1 -9 1 -6.6875 -0.1875 C-3.88010429 -1.03624754 -2.698065 -0.99928333 0 0 Z " fill="#494949" transform="translate(1262,561)"/>
<path d="M0 0 C3.14958831 3.42346555 3.56179109 6.44262737 4 11 C-0.25 4.625 -0.25 4.625 0 0 Z " fill="#5B5B5B" transform="translate(894,316)"/>
</svg>
